# xmcd
#
# Track frame offsets:
#	150
#	17688
#	50028
#	68025
#	81793
#	101340
#	116458
#	141695
#	155238
#	168400
#	189673
#	209125
#	226403
#	247033
#	281708
#	297883
#
# Disc length: 4383 seconds
#
# Revision: 8
# Processed by: cddbd v1.5.2PL0 Copyright (c) Steve Scherf et al.
# Submitted via: Jack! The Knife 18 Bulletproof
#
DISCID=f8111d10
DTITLE=Bob Marley and The Wailers - Legend
DYEAR=1984
DGENRE=Reggae
TTITLE0=Is This Love
TTITLE1=No Woman No Cry (Live)
TTITLE2=Could You Be Loved
TTITLE3=Three Little Birds
TTITLE4=Buffalo Soldier
TTITLE5=Get Up Stand Up
TTITLE6=Stir It Up
TTITLE7=Easy Skanking
TTITLE8=One Love - People Get Ready
TTITLE9=I Shot The Sheriff
TTITLE10=Waiting In Vain
TTITLE11=Redemption Song
TTITLE12=Satisfy My Soul
TTITLE13=Exodus
TTITLE14=Jamming
TTITLE15=Punky Reggae Party
EXTD=Bob Marley and The Wailers, Chris Blackwell
EXTT0=
EXTT1=
EXTT2=
EXTT3=
EXTT4=
EXTT5=
EXTT6=
EXTT7=
EXTT8=
EXTT9=
EXTT10=
EXTT11=
EXTT12=
EXTT13=
EXTT14=
EXTT15=
PLAYORDER=
